<svg xmlns="http://www.w3.org/2000/svg" width="860" height="540" viewBox="0 0 860 540">
<rect width="100%" height="100%" fill="white"/>
<text x="430.0" y="28" text-anchor="middle" font-family="Arial" font-size="20">HDR (half-duplex) vs distance</text>
<text x="430.0" y="52" text-anchor="middle" font-family="Arial" font-size="13" fill="#555">CBR target=50%, group=G2, mean over pKeep</text>
<line x1="80" y1="70" x2="80" y2="480" stroke="#333"/>
<line x1="80" y1="480" x2="830" y2="480" stroke="#333"/>
<line x1="80.0" y1="480" x2="80.0" y2="485" stroke="#333"/>
<text x="80.0" y="502" text-anchor="middle" font-family="Arial" font-size="11">25</text>
<line x1="163.3" y1="480" x2="163.3" y2="485" stroke="#333"/>
<text x="163.3" y="502" text-anchor="middle" font-family="Arial" font-size="11">75</text>
<line x1="246.7" y1="480" x2="246.7" y2="485" stroke="#333"/>
<text x="246.7" y="502" text-anchor="middle" font-family="Arial" font-size="11">125</text>
<line x1="330.0" y1="480" x2="330.0" y2="485" stroke="#333"/>
<text x="330.0" y="502" text-anchor="middle" font-family="Arial" font-size="11">175</text>
<line x1="413.3" y1="480" x2="413.3" y2="485" stroke="#333"/>
<text x="413.3" y="502" text-anchor="middle" font-family="Arial" font-size="11">225</text>
<line x1="496.7" y1="480" x2="496.7" y2="485" stroke="#333"/>
<text x="496.7" y="502" text-anchor="middle" font-family="Arial" font-size="11">275</text>
<line x1="580.0" y1="480" x2="580.0" y2="485" stroke="#333"/>
<text x="580.0" y="502" text-anchor="middle" font-family="Arial" font-size="11">325</text>
<line x1="663.3" y1="480" x2="663.3" y2="485" stroke="#333"/>
<text x="663.3" y="502" text-anchor="middle" font-family="Arial" font-size="11">375</text>
<line x1="746.7" y1="480" x2="746.7" y2="485" stroke="#333"/>
<text x="746.7" y="502" text-anchor="middle" font-family="Arial" font-size="11">425</text>
<line x1="830.0" y1="480" x2="830.0" y2="485" stroke="#333"/>
<text x="830.0" y="502" text-anchor="middle" font-family="Arial" font-size="11">475</text>
<line x1="75" y1="480.0" x2="80" y2="480.0" stroke="#333"/>
<line x1="80" y1="480.0" x2="830" y2="480.0" stroke="#eee"/>
<text x="72" y="484.0" text-anchor="end" font-family="Arial" font-size="11">0.004</text>
<line x1="75" y1="398.0" x2="80" y2="398.0" stroke="#333"/>
<line x1="80" y1="398.0" x2="830" y2="398.0" stroke="#eee"/>
<text x="72" y="402.0" text-anchor="end" font-family="Arial" font-size="11">0.004</text>
<line x1="75" y1="316.0" x2="80" y2="316.0" stroke="#333"/>
<line x1="80" y1="316.0" x2="830" y2="316.0" stroke="#eee"/>
<text x="72" y="320.0" text-anchor="end" font-family="Arial" font-size="11">0.004</text>
<line x1="75" y1="234.0" x2="80" y2="234.0" stroke="#333"/>
<line x1="80" y1="234.0" x2="830" y2="234.0" stroke="#eee"/>
<text x="72" y="238.0" text-anchor="end" font-family="Arial" font-size="11">0.004</text>
<line x1="75" y1="152.0" x2="80" y2="152.0" stroke="#333"/>
<line x1="80" y1="152.0" x2="830" y2="152.0" stroke="#eee"/>
<text x="72" y="156.0" text-anchor="end" font-family="Arial" font-size="11">0.004</text>
<line x1="75" y1="70.0" x2="80" y2="70.0" stroke="#333"/>
<line x1="80" y1="70.0" x2="830" y2="70.0" stroke="#eee"/>
<text x="72" y="74.0" text-anchor="end" font-family="Arial" font-size="11">0.005</text>
<text x="455.0" y="525" text-anchor="middle" font-family="Arial" font-size="14">Distance, m (bin centre)</text>
<text transform="translate(20,275.0) rotate(-90)" text-anchor="middle" font-family="Arial" font-size="14">HDR (half-duplex)</text>
<polyline points="80.0,347.6 163.3,451.7 246.7,315.3 330.0,230.8 413.3,278.8 496.7,261.5 580.0,211.6 663.3,273.2 746.7,242.2 830.0,270.3" fill="none" stroke="#1f77b4" stroke-width="2.5"/>
<circle cx="80.0" cy="347.6" r="3.5" fill="#1f77b4"/>
<circle cx="163.3" cy="451.7" r="3.5" fill="#1f77b4"/>
<circle cx="246.7" cy="315.3" r="3.5" fill="#1f77b4"/>
<circle cx="330.0" cy="230.8" r="3.5" fill="#1f77b4"/>
<circle cx="413.3" cy="278.8" r="3.5" fill="#1f77b4"/>
<circle cx="496.7" cy="261.5" r="3.5" fill="#1f77b4"/>
<circle cx="580.0" cy="211.6" r="3.5" fill="#1f77b4"/>
<circle cx="663.3" cy="273.2" r="3.5" fill="#1f77b4"/>
<circle cx="746.7" cy="242.2" r="3.5" fill="#1f77b4"/>
<circle cx="830.0" cy="270.3" r="3.5" fill="#1f77b4"/>
<line x1="710" y1="90" x2="738" y2="90" stroke="#1f77b4" stroke-width="3"/>
<text x="746" y="94" font-family="Arial" font-size="12">tx17</text>
<polyline points="80.0,289.1 163.3,326.7 246.7,318.7 330.0,370.5 413.3,331.3 496.7,366.5 580.0,341.2 663.3,210.8 746.7,267.6 830.0,171.3" fill="none" stroke="#d62728" stroke-width="2.5"/>
<circle cx="80.0" cy="289.1" r="3.5" fill="#d62728"/>
<circle cx="163.3" cy="326.7" r="3.5" fill="#d62728"/>
<circle cx="246.7" cy="318.7" r="3.5" fill="#d62728"/>
<circle cx="330.0" cy="370.5" r="3.5" fill="#d62728"/>
<circle cx="413.3" cy="331.3" r="3.5" fill="#d62728"/>
<circle cx="496.7" cy="366.5" r="3.5" fill="#d62728"/>
<circle cx="580.0" cy="341.2" r="3.5" fill="#d62728"/>
<circle cx="663.3" cy="210.8" r="3.5" fill="#d62728"/>
<circle cx="746.7" cy="267.6" r="3.5" fill="#d62728"/>
<circle cx="830.0" cy="171.3" r="3.5" fill="#d62728"/>
<line x1="710" y1="112" x2="738" y2="112" stroke="#d62728" stroke-width="3"/>
<text x="746" y="116" font-family="Arial" font-size="12">tx20</text>
<polyline points="80.0,385.0 163.3,399.7 246.7,429.5 330.0,265.0 413.3,407.3 496.7,191.7 580.0,250.9 663.3,266.1 746.7,324.8 830.0,98.3" fill="none" stroke="#2ca02c" stroke-width="2.5"/>
<circle cx="80.0" cy="385.0" r="3.5" fill="#2ca02c"/>
<circle cx="163.3" cy="399.7" r="3.5" fill="#2ca02c"/>
<circle cx="246.7" cy="429.5" r="3.5" fill="#2ca02c"/>
<circle cx="330.0" cy="265.0" r="3.5" fill="#2ca02c"/>
<circle cx="413.3" cy="407.3" r="3.5" fill="#2ca02c"/>
<circle cx="496.7" cy="191.7" r="3.5" fill="#2ca02c"/>
<circle cx="580.0" cy="250.9" r="3.5" fill="#2ca02c"/>
<circle cx="663.3" cy="266.1" r="3.5" fill="#2ca02c"/>
<circle cx="746.7" cy="324.8" r="3.5" fill="#2ca02c"/>
<circle cx="830.0" cy="98.3" r="3.5" fill="#2ca02c"/>
<line x1="710" y1="134" x2="738" y2="134" stroke="#2ca02c" stroke-width="3"/>
<text x="746" y="138" font-family="Arial" font-size="12">tx23</text>
</svg>
