<svg xmlns="http://www.w3.org/2000/svg" width="860" height="540" viewBox="0 0 860 540">
<rect width="100%" height="100%" fill="white"/>
<text x="430.0" y="28" text-anchor="middle" font-family="Arial" font-size="20">PRR vs distance</text>
<text x="430.0" y="52" text-anchor="middle" font-family="Arial" font-size="13" fill="#555">CBR target=95%, group=G1, mean over pKeep</text>
<line x1="80" y1="70" x2="80" y2="480" stroke="#333"/>
<line x1="80" y1="480" x2="830" y2="480" stroke="#333"/>
<line x1="80.0" y1="480" x2="80.0" y2="485" stroke="#333"/>
<text x="80.0" y="502" text-anchor="middle" font-family="Arial" font-size="11">25</text>
<line x1="163.3" y1="480" x2="163.3" y2="485" stroke="#333"/>
<text x="163.3" y="502" text-anchor="middle" font-family="Arial" font-size="11">75</text>
<line x1="246.7" y1="480" x2="246.7" y2="485" stroke="#333"/>
<text x="246.7" y="502" text-anchor="middle" font-family="Arial" font-size="11">125</text>
<line x1="330.0" y1="480" x2="330.0" y2="485" stroke="#333"/>
<text x="330.0" y="502" text-anchor="middle" font-family="Arial" font-size="11">175</text>
<line x1="413.3" y1="480" x2="413.3" y2="485" stroke="#333"/>
<text x="413.3" y="502" text-anchor="middle" font-family="Arial" font-size="11">225</text>
<line x1="496.7" y1="480" x2="496.7" y2="485" stroke="#333"/>
<text x="496.7" y="502" text-anchor="middle" font-family="Arial" font-size="11">275</text>
<line x1="580.0" y1="480" x2="580.0" y2="485" stroke="#333"/>
<text x="580.0" y="502" text-anchor="middle" font-family="Arial" font-size="11">325</text>
<line x1="663.3" y1="480" x2="663.3" y2="485" stroke="#333"/>
<text x="663.3" y="502" text-anchor="middle" font-family="Arial" font-size="11">375</text>
<line x1="746.7" y1="480" x2="746.7" y2="485" stroke="#333"/>
<text x="746.7" y="502" text-anchor="middle" font-family="Arial" font-size="11">425</text>
<line x1="830.0" y1="480" x2="830.0" y2="485" stroke="#333"/>
<text x="830.0" y="502" text-anchor="middle" font-family="Arial" font-size="11">475</text>
<line x1="75" y1="480.0" x2="80" y2="480.0" stroke="#333"/>
<line x1="80" y1="480.0" x2="830" y2="480.0" stroke="#eee"/>
<text x="72" y="484.0" text-anchor="end" font-family="Arial" font-size="11">0.931</text>
<line x1="75" y1="398.0" x2="80" y2="398.0" stroke="#333"/>
<line x1="80" y1="398.0" x2="830" y2="398.0" stroke="#eee"/>
<text x="72" y="402.0" text-anchor="end" font-family="Arial" font-size="11">0.945</text>
<line x1="75" y1="316.0" x2="80" y2="316.0" stroke="#333"/>
<line x1="80" y1="316.0" x2="830" y2="316.0" stroke="#eee"/>
<text x="72" y="320.0" text-anchor="end" font-family="Arial" font-size="11">0.959</text>
<line x1="75" y1="234.0" x2="80" y2="234.0" stroke="#333"/>
<line x1="80" y1="234.0" x2="830" y2="234.0" stroke="#eee"/>
<text x="72" y="238.0" text-anchor="end" font-family="Arial" font-size="11">0.974</text>
<line x1="75" y1="152.0" x2="80" y2="152.0" stroke="#333"/>
<line x1="80" y1="152.0" x2="830" y2="152.0" stroke="#eee"/>
<text x="72" y="156.0" text-anchor="end" font-family="Arial" font-size="11">0.988</text>
<line x1="75" y1="70.0" x2="80" y2="70.0" stroke="#333"/>
<line x1="80" y1="70.0" x2="830" y2="70.0" stroke="#eee"/>
<text x="72" y="74.0" text-anchor="end" font-family="Arial" font-size="11">1.002</text>
<text x="455.0" y="525" text-anchor="middle" font-family="Arial" font-size="14">Distance, m (bin centre)</text>
<text transform="translate(20,275.0) rotate(-90)" text-anchor="middle" font-family="Arial" font-size="14">PRR</text>
<polyline points="80.0,133.5 163.3,141.7 246.7,153.4 330.0,175.5 413.3,229.0 496.7,258.0 580.0,291.4 663.3,341.5 746.7,392.8 830.0,451.7" fill="none" stroke="#1f77b4" stroke-width="2.5"/>
<circle cx="80.0" cy="133.5" r="3.5" fill="#1f77b4"/>
<circle cx="163.3" cy="141.7" r="3.5" fill="#1f77b4"/>
<circle cx="246.7" cy="153.4" r="3.5" fill="#1f77b4"/>
<circle cx="330.0" cy="175.5" r="3.5" fill="#1f77b4"/>
<circle cx="413.3" cy="229.0" r="3.5" fill="#1f77b4"/>
<circle cx="496.7" cy="258.0" r="3.5" fill="#1f77b4"/>
<circle cx="580.0" cy="291.4" r="3.5" fill="#1f77b4"/>
<circle cx="663.3" cy="341.5" r="3.5" fill="#1f77b4"/>
<circle cx="746.7" cy="392.8" r="3.5" fill="#1f77b4"/>
<circle cx="830.0" cy="451.7" r="3.5" fill="#1f77b4"/>
<line x1="710" y1="90" x2="738" y2="90" stroke="#1f77b4" stroke-width="3"/>
<text x="746" y="94" font-family="Arial" font-size="12">mu0</text>
<polyline points="80.0,124.0 163.3,130.4 246.7,144.6 330.0,161.7 413.3,184.3 496.7,210.8 580.0,245.0 663.3,291.9 746.7,342.2 830.0,401.5" fill="none" stroke="#d62728" stroke-width="2.5"/>
<circle cx="80.0" cy="124.0" r="3.5" fill="#d62728"/>
<circle cx="163.3" cy="130.4" r="3.5" fill="#d62728"/>
<circle cx="246.7" cy="144.6" r="3.5" fill="#d62728"/>
<circle cx="330.0" cy="161.7" r="3.5" fill="#d62728"/>
<circle cx="413.3" cy="184.3" r="3.5" fill="#d62728"/>
<circle cx="496.7" cy="210.8" r="3.5" fill="#d62728"/>
<circle cx="580.0" cy="245.0" r="3.5" fill="#d62728"/>
<circle cx="663.3" cy="291.9" r="3.5" fill="#d62728"/>
<circle cx="746.7" cy="342.2" r="3.5" fill="#d62728"/>
<circle cx="830.0" cy="401.5" r="3.5" fill="#d62728"/>
<line x1="710" y1="112" x2="738" y2="112" stroke="#d62728" stroke-width="3"/>
<text x="746" y="116" font-family="Arial" font-size="12">mu1</text>
<polyline points="80.0,98.3 163.3,103.6 246.7,120.6 330.0,145.5 413.3,173.4 496.7,197.2 580.0,229.3 663.3,262.2 746.7,299.9 830.0,344.2" fill="none" stroke="#2ca02c" stroke-width="2.5"/>
<circle cx="80.0" cy="98.3" r="3.5" fill="#2ca02c"/>
<circle cx="163.3" cy="103.6" r="3.5" fill="#2ca02c"/>
<circle cx="246.7" cy="120.6" r="3.5" fill="#2ca02c"/>
<circle cx="330.0" cy="145.5" r="3.5" fill="#2ca02c"/>
<circle cx="413.3" cy="173.4" r="3.5" fill="#2ca02c"/>
<circle cx="496.7" cy="197.2" r="3.5" fill="#2ca02c"/>
<circle cx="580.0" cy="229.3" r="3.5" fill="#2ca02c"/>
<circle cx="663.3" cy="262.2" r="3.5" fill="#2ca02c"/>
<circle cx="746.7" cy="299.9" r="3.5" fill="#2ca02c"/>
<circle cx="830.0" cy="344.2" r="3.5" fill="#2ca02c"/>
<line x1="710" y1="134" x2="738" y2="134" stroke="#2ca02c" stroke-width="3"/>
<text x="746" y="138" font-family="Arial" font-size="12">mu2</text>
</svg>
