<svg xmlns="http://www.w3.org/2000/svg" width="502" height="540" viewBox="0 0 502 540">
<rect width="100%" height="100%" fill="white"/>
<text x="251.0" y="28" text-anchor="middle" font-family="Arial" font-size="20">Actual measured CBR vs target</text>
<text x="251.0" y="50" text-anchor="middle" font-family="Arial" font-size="13" fill="#555">CBR target=95%, group=G1</text>
<line x1="70" y1="80" x2="70" y2="430" stroke="#333"/>
<line x1="70" y1="430" x2="342" y2="430" stroke="#333"/>
<line x1="65" y1="430.0" x2="70" y2="430.0" stroke="#333"/>
<text x="62" y="434.0" text-anchor="end" font-family="Arial" font-size="11">0.0</text>
<line x1="65" y1="360.0" x2="70" y2="360.0" stroke="#333"/>
<text x="62" y="364.0" text-anchor="end" font-family="Arial" font-size="11">0.2</text>
<line x1="65" y1="290.0" x2="70" y2="290.0" stroke="#333"/>
<text x="62" y="294.0" text-anchor="end" font-family="Arial" font-size="11">0.4</text>
<line x1="65" y1="220.0" x2="70" y2="220.0" stroke="#333"/>
<text x="62" y="224.0" text-anchor="end" font-family="Arial" font-size="11">0.6</text>
<line x1="65" y1="150.0" x2="70" y2="150.0" stroke="#333"/>
<text x="62" y="154.0" text-anchor="end" font-family="Arial" font-size="11">0.8</text>
<line x1="65" y1="80.0" x2="70" y2="80.0" stroke="#333"/>
<text x="62" y="84.0" text-anchor="end" font-family="Arial" font-size="11">1.0</text>
<line x1="70" y1="97.5" x2="342" y2="97.5" stroke="#c62828" stroke-dasharray="5,3" stroke-width="1.5"/>
<text x="74" y="93.5" font-family="Arial" font-size="11" fill="#c62828">target=0.95</text>
<text transform="translate(20,255.0) rotate(-90)" text-anchor="middle" font-family="Arial" font-size="14">CBR (measured fraction)</text>
<rect x="72.0" y="97.5" width="28" height="332.5" fill="#1f77b4" fill-opacity="0.75"/>
<line x1="86.0" y1="87.0" x2="86.0" y2="430.0" stroke="#333" stroke-width="0.8"/>
<line x1="81.0" y1="87.0" x2="91.0" y2="87.0" stroke="#333" stroke-width="1.2"/>
<line x1="70.0" y1="97.7" x2="102.0" y2="97.7" stroke="#ff7f0e" stroke-width="2"/>
<text x="86.0" y="448" text-anchor="middle" font-family="Arial" font-size="10">mu0</text>
<text x="86.0" y="462" text-anchor="middle" font-family="Arial" font-size="10" fill="#555">P=0.00</text>
<rect x="106.0" y="108.0" width="28" height="322.0" fill="#1f77b4" fill-opacity="0.75"/>
<line x1="120.0" y1="97.5" x2="120.0" y2="430.0" stroke="#333" stroke-width="0.8"/>
<line x1="115.0" y1="97.5" x2="125.0" y2="97.5" stroke="#333" stroke-width="1.2"/>
<line x1="104.0" y1="106.9" x2="136.0" y2="106.9" stroke="#ff7f0e" stroke-width="2"/>
<text x="120.0" y="448" text-anchor="middle" font-family="Arial" font-size="10">mu0</text>
<text x="120.0" y="462" text-anchor="middle" font-family="Arial" font-size="10" fill="#555">P=0.40</text>
<rect x="140.0" y="108.0" width="28" height="322.0" fill="#1f77b4" fill-opacity="0.75"/>
<line x1="154.0" y1="97.5" x2="154.0" y2="430.0" stroke="#333" stroke-width="0.8"/>
<line x1="149.0" y1="97.5" x2="159.0" y2="97.5" stroke="#333" stroke-width="1.2"/>
<line x1="138.0" y1="108.6" x2="170.0" y2="108.6" stroke="#ff7f0e" stroke-width="2"/>
<text x="154.0" y="448" text-anchor="middle" font-family="Arial" font-size="10">mu0</text>
<text x="154.0" y="462" text-anchor="middle" font-family="Arial" font-size="10" fill="#555">P=0.80</text>
<rect x="174.0" y="94.0" width="28" height="336.0" fill="#1f77b4" fill-opacity="0.75"/>
<line x1="188.0" y1="87.0" x2="188.0" y2="430.0" stroke="#333" stroke-width="0.8"/>
<line x1="183.0" y1="87.0" x2="193.0" y2="87.0" stroke="#333" stroke-width="1.2"/>
<line x1="172.0" y1="94.8" x2="204.0" y2="94.8" stroke="#ff7f0e" stroke-width="2"/>
<text x="188.0" y="448" text-anchor="middle" font-family="Arial" font-size="10">mu1</text>
<text x="188.0" y="462" text-anchor="middle" font-family="Arial" font-size="10" fill="#555">P=0.00</text>
<rect x="208.0" y="108.0" width="28" height="322.0" fill="#1f77b4" fill-opacity="0.75"/>
<line x1="222.0" y1="99.3" x2="222.0" y2="430.0" stroke="#333" stroke-width="0.8"/>
<line x1="217.0" y1="99.3" x2="227.0" y2="99.3" stroke="#333" stroke-width="1.2"/>
<line x1="206.0" y1="108.6" x2="238.0" y2="108.6" stroke="#ff7f0e" stroke-width="2"/>
<text x="222.0" y="448" text-anchor="middle" font-family="Arial" font-size="10">mu1</text>
<text x="222.0" y="462" text-anchor="middle" font-family="Arial" font-size="10" fill="#555">P=0.40</text>
<rect x="242.0" y="109.7" width="28" height="320.2" fill="#1f77b4" fill-opacity="0.75"/>
<line x1="256.0" y1="99.3" x2="256.0" y2="430.0" stroke="#333" stroke-width="0.8"/>
<line x1="251.0" y1="99.3" x2="261.0" y2="99.3" stroke="#333" stroke-width="1.2"/>
<line x1="240.0" y1="109.8" x2="272.0" y2="109.8" stroke="#ff7f0e" stroke-width="2"/>
<text x="256.0" y="448" text-anchor="middle" font-family="Arial" font-size="10">mu1</text>
<text x="256.0" y="462" text-anchor="middle" font-family="Arial" font-size="10" fill="#555">P=0.80</text>
<rect x="276.0" y="108.9" width="28" height="321.1" fill="#1f77b4" fill-opacity="0.75"/>
<line x1="290.0" y1="100.1" x2="290.0" y2="430.0" stroke="#333" stroke-width="0.8"/>
<line x1="285.0" y1="100.1" x2="295.0" y2="100.1" stroke="#333" stroke-width="1.2"/>
<line x1="274.0" y1="109.1" x2="306.0" y2="109.1" stroke="#ff7f0e" stroke-width="2"/>
<text x="290.0" y="448" text-anchor="middle" font-family="Arial" font-size="10">mu2</text>
<text x="290.0" y="462" text-anchor="middle" font-family="Arial" font-size="10" fill="#555">P=0.40</text>
<rect x="310.0" y="111.5" width="28" height="318.5" fill="#1f77b4" fill-opacity="0.75"/>
<line x1="324.0" y1="101.0" x2="324.0" y2="430.0" stroke="#333" stroke-width="0.8"/>
<line x1="319.0" y1="101.0" x2="329.0" y2="101.0" stroke="#333" stroke-width="1.2"/>
<line x1="308.0" y1="111.4" x2="340.0" y2="111.4" stroke="#ff7f0e" stroke-width="2"/>
<text x="324.0" y="448" text-anchor="middle" font-family="Arial" font-size="10">mu2</text>
<text x="324.0" y="462" text-anchor="middle" font-family="Arial" font-size="10" fill="#555">P=0.80</text>
<rect x="362" y="90" width="16" height="16" fill="#1f77b4" fill-opacity="0.75"/>
<text x="384" y="103" font-family="Arial" font-size="12">CBR p50 (bar)</text>
<rect x="362" y="112" width="16" height="16" fill="#333" fill-opacity="0.75"/>
<text x="384" y="125" font-family="Arial" font-size="12">CBR p95 (whisker top)</text>
<rect x="362" y="134" width="16" height="16" fill="#ff7f0e" fill-opacity="0.75"/>
<text x="384" y="147" font-family="Arial" font-size="12">CBR mean (orange tick)</text>
<rect x="362" y="156" width="16" height="16" fill="#c62828" fill-opacity="0.75"/>
<text x="384" y="169" font-family="Arial" font-size="12">target (red dashed)</text>
</svg>
