<svg xmlns="http://www.w3.org/2000/svg" width="860" height="560" viewBox="0 0 860 560">
<rect width="100%" height="100%" fill="white"/>
<text x="430.0" y="28" text-anchor="middle" font-family="Arial" font-size="20">CLR (article, denom=SR+PL+CL) vs persistence</text>
<text x="430.0" y="52" text-anchor="middle" font-family="Arial" font-size="13" fill="#555">CBR target=50%, band=250_500m, group=G1</text>
<line x1="90" y1="70" x2="90" y2="475" stroke="#333"/>
<line x1="90" y1="475" x2="830" y2="475" stroke="#333"/>
<line x1="90.0" y1="475" x2="90.0" y2="480" stroke="#333"/>
<text x="90.0" y="499" text-anchor="middle" font-family="Arial" font-size="12">η=1.00</text>
<text x="90.0" y="516" text-anchor="middle" font-family="Arial" font-size="11" fill="#666">P=0.0</text>
<line x1="213.3" y1="475" x2="213.3" y2="480" stroke="#333"/>
<text x="213.3" y="499" text-anchor="middle" font-family="Arial" font-size="12">η=1.67</text>
<text x="213.3" y="516" text-anchor="middle" font-family="Arial" font-size="11" fill="#666">P=0.4</text>
<line x1="830.0" y1="475" x2="830.0" y2="480" stroke="#333"/>
<text x="830.0" y="499" text-anchor="middle" font-family="Arial" font-size="12">η=5.00</text>
<text x="830.0" y="516" text-anchor="middle" font-family="Arial" font-size="11" fill="#666">P=0.8</text>
<line x1="85" y1="475.0" x2="90" y2="475.0" stroke="#333"/>
<line x1="90" y1="475.0" x2="830" y2="475.0" stroke="#eee"/>
<text x="80" y="479.0" text-anchor="end" font-family="Arial" font-size="11">-0.000</text>
<line x1="85" y1="394.0" x2="90" y2="394.0" stroke="#333"/>
<line x1="90" y1="394.0" x2="830" y2="394.0" stroke="#eee"/>
<text x="80" y="398.0" text-anchor="end" font-family="Arial" font-size="11">0.001</text>
<line x1="85" y1="313.0" x2="90" y2="313.0" stroke="#333"/>
<line x1="90" y1="313.0" x2="830" y2="313.0" stroke="#eee"/>
<text x="80" y="317.0" text-anchor="end" font-family="Arial" font-size="11">0.002</text>
<line x1="85" y1="232.0" x2="90" y2="232.0" stroke="#333"/>
<line x1="90" y1="232.0" x2="830" y2="232.0" stroke="#eee"/>
<text x="80" y="236.0" text-anchor="end" font-family="Arial" font-size="11">0.002</text>
<line x1="85" y1="151.0" x2="90" y2="151.0" stroke="#333"/>
<line x1="90" y1="151.0" x2="830" y2="151.0" stroke="#eee"/>
<text x="80" y="155.0" text-anchor="end" font-family="Arial" font-size="11">0.003</text>
<line x1="85" y1="70.0" x2="90" y2="70.0" stroke="#333"/>
<line x1="90" y1="70.0" x2="830" y2="70.0" stroke="#eee"/>
<text x="80" y="74.0" text-anchor="end" font-family="Arial" font-size="11">0.004</text>
<text x="460.0" y="545" text-anchor="middle" font-family="Arial" font-size="14">Persistence η = 1/(1−P)</text>
<text transform="translate(22,272.5) rotate(-90)" text-anchor="middle" font-family="Arial" font-size="14">CLR (article, denom=SR+PL+CL)</text>
<polyline points="90.0,97.9 213.3,165.2 830.0,196.6" fill="none" stroke="#1f77b4" stroke-width="2.5"/>
<circle cx="90.0" cy="97.9" r="4" fill="#1f77b4"/>
<circle cx="213.3" cy="165.2" r="4" fill="#1f77b4"/>
<circle cx="830.0" cy="196.6" r="4" fill="#1f77b4"/>
<line x1="710" y1="90" x2="738" y2="90" stroke="#1f77b4" stroke-width="3"/>
<text x="746" y="94" font-family="Arial" font-size="12">mu0</text>
<polyline points="90.0,447.1 213.3,447.1 830.0,447.1" fill="none" stroke="#d62728" stroke-width="2.5"/>
<circle cx="90.0" cy="447.1" r="4" fill="#d62728"/>
<circle cx="213.3" cy="447.1" r="4" fill="#d62728"/>
<circle cx="830.0" cy="447.1" r="4" fill="#d62728"/>
<line x1="710" y1="112" x2="738" y2="112" stroke="#d62728" stroke-width="3"/>
<text x="746" y="116" font-family="Arial" font-size="12">mu1</text>
<polyline points="90.0,447.1 213.3,447.1 830.0,447.1" fill="none" stroke="#2ca02c" stroke-width="2.5"/>
<circle cx="90.0" cy="447.1" r="4" fill="#2ca02c"/>
<circle cx="213.3" cy="447.1" r="4" fill="#2ca02c"/>
<circle cx="830.0" cy="447.1" r="4" fill="#2ca02c"/>
<line x1="710" y1="134" x2="738" y2="134" stroke="#2ca02c" stroke-width="3"/>
<text x="746" y="138" font-family="Arial" font-size="12">mu2</text>
</svg>
