<svg xmlns="http://www.w3.org/2000/svg" width="760" height="540" viewBox="0 0 760 540">
<rect width="100%" height="100%" fill="white"/>
<text x="380.0" y="28" text-anchor="middle" font-family="Arial" font-size="20">Pareto: E[AoI] vs PAoI p95</text>
<text x="380.0" y="52" text-anchor="middle" font-family="Arial" font-size="13" fill="#555">CBR target=50%, band=250_500m, group=G1 — marker size ∝ pKeep</text>
<line x1="90" y1="70" x2="90" y2="470" stroke="#333"/>
<line x1="90" y1="470" x2="730" y2="470" stroke="#333"/>
<line x1="90.0" y1="470" x2="90.0" y2="475" stroke="#333"/>
<text x="90.0" y="492" text-anchor="middle" font-family="Arial" font-size="11">7462</text>
<line x1="85" y1="470.0" x2="90" y2="470.0" stroke="#333"/>
<line x1="90" y1="470.0" x2="730" y2="470.0" stroke="#eee"/>
<text x="82" y="474.0" text-anchor="end" font-family="Arial" font-size="11">37.2</text>
<line x1="218.0" y1="470" x2="218.0" y2="475" stroke="#333"/>
<text x="218.0" y="492" text-anchor="middle" font-family="Arial" font-size="11">7490</text>
<line x1="85" y1="390.0" x2="90" y2="390.0" stroke="#333"/>
<line x1="90" y1="390.0" x2="730" y2="390.0" stroke="#eee"/>
<text x="82" y="394.0" text-anchor="end" font-family="Arial" font-size="11">74.3</text>
<line x1="346.0" y1="470" x2="346.0" y2="475" stroke="#333"/>
<text x="346.0" y="492" text-anchor="middle" font-family="Arial" font-size="11">7519</text>
<line x1="85" y1="310.0" x2="90" y2="310.0" stroke="#333"/>
<line x1="90" y1="310.0" x2="730" y2="310.0" stroke="#eee"/>
<text x="82" y="314.0" text-anchor="end" font-family="Arial" font-size="11">111.4</text>
<line x1="474.0" y1="470" x2="474.0" y2="475" stroke="#333"/>
<text x="474.0" y="492" text-anchor="middle" font-family="Arial" font-size="11">7547</text>
<line x1="85" y1="230.0" x2="90" y2="230.0" stroke="#333"/>
<line x1="90" y1="230.0" x2="730" y2="230.0" stroke="#eee"/>
<text x="82" y="234.0" text-anchor="end" font-family="Arial" font-size="11">148.6</text>
<line x1="602.0" y1="470" x2="602.0" y2="475" stroke="#333"/>
<text x="602.0" y="492" text-anchor="middle" font-family="Arial" font-size="11">7575</text>
<line x1="85" y1="150.0" x2="90" y2="150.0" stroke="#333"/>
<line x1="90" y1="150.0" x2="730" y2="150.0" stroke="#eee"/>
<text x="82" y="154.0" text-anchor="end" font-family="Arial" font-size="11">185.7</text>
<line x1="730.0" y1="470" x2="730.0" y2="475" stroke="#333"/>
<text x="730.0" y="492" text-anchor="middle" font-family="Arial" font-size="11">7604</text>
<line x1="85" y1="70.0" x2="90" y2="70.0" stroke="#333"/>
<line x1="90" y1="70.0" x2="730" y2="70.0" stroke="#eee"/>
<text x="82" y="74.0" text-anchor="end" font-family="Arial" font-size="11">222.8</text>
<text x="410.0" y="525" text-anchor="middle" font-family="Arial" font-size="14">E[AoI], ms (mean)</text>
<text transform="translate(22,270.0) rotate(-90)" text-anchor="middle" font-family="Arial" font-size="14">PAoI p95, ms (tail)</text>
<circle cx="685.9" cy="97.6" r="4.0" fill="#1f77b4" fill-opacity="0.65" stroke="#333" stroke-width="0.5"/>
<circle cx="657.7" cy="119.1" r="7.2" fill="#1f77b4" fill-opacity="0.65" stroke="#333" stroke-width="0.5"/>
<circle cx="634.5" cy="119.1" r="10.4" fill="#1f77b4" fill-opacity="0.65" stroke="#333" stroke-width="0.5"/>
<circle cx="311.7" cy="334.7" r="4.0" fill="#d62728" fill-opacity="0.65" stroke="#333" stroke-width="0.5"/>
<circle cx="319.3" cy="334.7" r="7.2" fill="#d62728" fill-opacity="0.65" stroke="#333" stroke-width="0.5"/>
<circle cx="280.8" cy="334.7" r="10.4" fill="#d62728" fill-opacity="0.65" stroke="#333" stroke-width="0.5"/>
<circle cx="167.3" cy="442.4" r="4.0" fill="#2ca02c" fill-opacity="0.65" stroke="#333" stroke-width="0.5"/>
<circle cx="154.0" cy="442.4" r="7.2" fill="#2ca02c" fill-opacity="0.65" stroke="#333" stroke-width="0.5"/>
<circle cx="134.1" cy="442.4" r="10.4" fill="#2ca02c" fill-opacity="0.65" stroke="#333" stroke-width="0.5"/>
<circle cx="620" cy="90" r="6" fill="#1f77b4" fill-opacity="0.65" stroke="#333" stroke-width="0.5"/>
<text x="634" y="94" font-family="Arial" font-size="12">mu0</text>
<circle cx="620" cy="112" r="6" fill="#d62728" fill-opacity="0.65" stroke="#333" stroke-width="0.5"/>
<text x="634" y="116" font-family="Arial" font-size="12">mu1</text>
<circle cx="620" cy="134" r="6" fill="#2ca02c" fill-opacity="0.65" stroke="#333" stroke-width="0.5"/>
<text x="634" y="138" font-family="Arial" font-size="12">mu2</text>
</svg>
