<svg xmlns="http://www.w3.org/2000/svg" width="860" height="540" viewBox="0 0 860 540">
<rect width="100%" height="100%" fill="white"/>
<text x="430.0" y="28" text-anchor="middle" font-family="Arial" font-size="20">PRR vs distance</text>
<text x="430.0" y="52" text-anchor="middle" font-family="Arial" font-size="13" fill="#555">CBR target=50%, group=G1, mean over pKeep</text>
<line x1="80" y1="70" x2="80" y2="480" stroke="#333"/>
<line x1="80" y1="480" x2="830" y2="480" stroke="#333"/>
<line x1="80.0" y1="480" x2="80.0" y2="485" stroke="#333"/>
<text x="80.0" y="502" text-anchor="middle" font-family="Arial" font-size="11">25</text>
<line x1="163.3" y1="480" x2="163.3" y2="485" stroke="#333"/>
<text x="163.3" y="502" text-anchor="middle" font-family="Arial" font-size="11">75</text>
<line x1="246.7" y1="480" x2="246.7" y2="485" stroke="#333"/>
<text x="246.7" y="502" text-anchor="middle" font-family="Arial" font-size="11">125</text>
<line x1="330.0" y1="480" x2="330.0" y2="485" stroke="#333"/>
<text x="330.0" y="502" text-anchor="middle" font-family="Arial" font-size="11">175</text>
<line x1="413.3" y1="480" x2="413.3" y2="485" stroke="#333"/>
<text x="413.3" y="502" text-anchor="middle" font-family="Arial" font-size="11">225</text>
<line x1="496.7" y1="480" x2="496.7" y2="485" stroke="#333"/>
<text x="496.7" y="502" text-anchor="middle" font-family="Arial" font-size="11">275</text>
<line x1="580.0" y1="480" x2="580.0" y2="485" stroke="#333"/>
<text x="580.0" y="502" text-anchor="middle" font-family="Arial" font-size="11">325</text>
<line x1="663.3" y1="480" x2="663.3" y2="485" stroke="#333"/>
<text x="663.3" y="502" text-anchor="middle" font-family="Arial" font-size="11">375</text>
<line x1="746.7" y1="480" x2="746.7" y2="485" stroke="#333"/>
<text x="746.7" y="502" text-anchor="middle" font-family="Arial" font-size="11">425</text>
<line x1="830.0" y1="480" x2="830.0" y2="485" stroke="#333"/>
<text x="830.0" y="502" text-anchor="middle" font-family="Arial" font-size="11">475</text>
<line x1="75" y1="480.0" x2="80" y2="480.0" stroke="#333"/>
<line x1="80" y1="480.0" x2="830" y2="480.0" stroke="#eee"/>
<text x="72" y="484.0" text-anchor="end" font-family="Arial" font-size="11">0.952</text>
<line x1="75" y1="398.0" x2="80" y2="398.0" stroke="#333"/>
<line x1="80" y1="398.0" x2="830" y2="398.0" stroke="#eee"/>
<text x="72" y="402.0" text-anchor="end" font-family="Arial" font-size="11">0.962</text>
<line x1="75" y1="316.0" x2="80" y2="316.0" stroke="#333"/>
<line x1="80" y1="316.0" x2="830" y2="316.0" stroke="#eee"/>
<text x="72" y="320.0" text-anchor="end" font-family="Arial" font-size="11">0.971</text>
<line x1="75" y1="234.0" x2="80" y2="234.0" stroke="#333"/>
<line x1="80" y1="234.0" x2="830" y2="234.0" stroke="#eee"/>
<text x="72" y="238.0" text-anchor="end" font-family="Arial" font-size="11">0.981</text>
<line x1="75" y1="152.0" x2="80" y2="152.0" stroke="#333"/>
<line x1="80" y1="152.0" x2="830" y2="152.0" stroke="#eee"/>
<text x="72" y="156.0" text-anchor="end" font-family="Arial" font-size="11">0.990</text>
<line x1="75" y1="70.0" x2="80" y2="70.0" stroke="#333"/>
<line x1="80" y1="70.0" x2="830" y2="70.0" stroke="#eee"/>
<text x="72" y="74.0" text-anchor="end" font-family="Arial" font-size="11">1.000</text>
<text x="455.0" y="525" text-anchor="middle" font-family="Arial" font-size="14">Distance, m (bin centre)</text>
<text transform="translate(20,275.0) rotate(-90)" text-anchor="middle" font-family="Arial" font-size="14">PRR</text>
<polyline points="80.0,102.1 163.3,104.1 246.7,107.6 330.0,119.0 413.3,143.8 496.7,172.0 580.0,213.6 663.3,278.4 746.7,353.4 830.0,451.7" fill="none" stroke="#1f77b4" stroke-width="2.5"/>
<circle cx="80.0" cy="102.1" r="3.5" fill="#1f77b4"/>
<circle cx="163.3" cy="104.1" r="3.5" fill="#1f77b4"/>
<circle cx="246.7" cy="107.6" r="3.5" fill="#1f77b4"/>
<circle cx="330.0" cy="119.0" r="3.5" fill="#1f77b4"/>
<circle cx="413.3" cy="143.8" r="3.5" fill="#1f77b4"/>
<circle cx="496.7" cy="172.0" r="3.5" fill="#1f77b4"/>
<circle cx="580.0" cy="213.6" r="3.5" fill="#1f77b4"/>
<circle cx="663.3" cy="278.4" r="3.5" fill="#1f77b4"/>
<circle cx="746.7" cy="353.4" r="3.5" fill="#1f77b4"/>
<circle cx="830.0" cy="451.7" r="3.5" fill="#1f77b4"/>
<line x1="710" y1="90" x2="738" y2="90" stroke="#1f77b4" stroke-width="3"/>
<text x="746" y="94" font-family="Arial" font-size="12">mu0</text>
<polyline points="80.0,103.3 163.3,98.9 246.7,100.7 330.0,107.1 413.3,114.8 496.7,140.0 580.0,183.2 663.3,249.8 746.7,321.9 830.0,413.5" fill="none" stroke="#d62728" stroke-width="2.5"/>
<circle cx="80.0" cy="103.3" r="3.5" fill="#d62728"/>
<circle cx="163.3" cy="98.9" r="3.5" fill="#d62728"/>
<circle cx="246.7" cy="100.7" r="3.5" fill="#d62728"/>
<circle cx="330.0" cy="107.1" r="3.5" fill="#d62728"/>
<circle cx="413.3" cy="114.8" r="3.5" fill="#d62728"/>
<circle cx="496.7" cy="140.0" r="3.5" fill="#d62728"/>
<circle cx="580.0" cy="183.2" r="3.5" fill="#d62728"/>
<circle cx="663.3" cy="249.8" r="3.5" fill="#d62728"/>
<circle cx="746.7" cy="321.9" r="3.5" fill="#d62728"/>
<circle cx="830.0" cy="413.5" r="3.5" fill="#d62728"/>
<line x1="710" y1="112" x2="738" y2="112" stroke="#d62728" stroke-width="3"/>
<text x="746" y="116" font-family="Arial" font-size="12">mu1</text>
<polyline points="80.0,98.3 163.3,100.3 246.7,101.4 330.0,105.1 413.3,111.7 496.7,126.4 580.0,153.1 663.3,199.5 746.7,258.7 830.0,326.1" fill="none" stroke="#2ca02c" stroke-width="2.5"/>
<circle cx="80.0" cy="98.3" r="3.5" fill="#2ca02c"/>
<circle cx="163.3" cy="100.3" r="3.5" fill="#2ca02c"/>
<circle cx="246.7" cy="101.4" r="3.5" fill="#2ca02c"/>
<circle cx="330.0" cy="105.1" r="3.5" fill="#2ca02c"/>
<circle cx="413.3" cy="111.7" r="3.5" fill="#2ca02c"/>
<circle cx="496.7" cy="126.4" r="3.5" fill="#2ca02c"/>
<circle cx="580.0" cy="153.1" r="3.5" fill="#2ca02c"/>
<circle cx="663.3" cy="199.5" r="3.5" fill="#2ca02c"/>
<circle cx="746.7" cy="258.7" r="3.5" fill="#2ca02c"/>
<circle cx="830.0" cy="326.1" r="3.5" fill="#2ca02c"/>
<line x1="710" y1="134" x2="738" y2="134" stroke="#2ca02c" stroke-width="3"/>
<text x="746" y="138" font-family="Arial" font-size="12">mu2</text>
</svg>
