<svg xmlns="http://www.w3.org/2000/svg" width="520" height="290" viewBox="0 0 520 290">
<rect width="100%" height="100%" fill="white"/>
<text x="260.0" y="28" text-anchor="middle" font-family="Arial" font-size="20">Heatmap E[AoI], ms</text>
<text x="260.0" y="50" text-anchor="middle" font-family="Arial" font-size="13" fill="#555">E[AoI], ms | CBR target=50%, band=0_250m, group=G1</text>
<text x="135.0" y="72" text-anchor="middle" font-family="Arial" font-size="12">mu0</text>
<text x="245.0" y="72" text-anchor="middle" font-family="Arial" font-size="12">mu1</text>
<text x="355.0" y="72" text-anchor="middle" font-family="Arial" font-size="12">mu2</text>
<text x="70" y="114.0" text-anchor="end" font-family="Arial" font-size="12">P=0.00 (η=1.0)</text>
<text x="70" y="174.0" text-anchor="end" font-family="Arial" font-size="12">P=0.40 (η=1.7)</text>
<text x="70" y="234.0" text-anchor="end" font-family="Arial" font-size="12">P=0.80 (η=5.0)</text>
<rect x="80" y="80" width="110" height="60" fill="rgb(230,34,10)" stroke="#fff"/>
<text x="135.0" y="114.0" text-anchor="middle" font-family="Arial" font-size="12" fill="#fff">8219</text>
<rect x="80" y="140" width="110" height="60" fill="rgb(230,23,7)" stroke="#fff"/>
<text x="135.0" y="174.0" text-anchor="middle" font-family="Arial" font-size="12" fill="#fff">8222</text>
<rect x="80" y="200" width="110" height="60" fill="rgb(230,0,0)" stroke="#fff"/>
<text x="135.0" y="234.0" text-anchor="middle" font-family="Arial" font-size="12" fill="#fff">8229</text>
<rect x="190" y="80" width="110" height="60" fill="rgb(143,143,200)" stroke="#fff"/>
<text x="245.0" y="114.0" text-anchor="middle" font-family="Arial" font-size="12" fill="#000">8122</text>
<rect x="190" y="140" width="110" height="60" fill="rgb(167,167,200)" stroke="#fff"/>
<text x="245.0" y="174.0" text-anchor="middle" font-family="Arial" font-size="12" fill="#000">8130</text>
<rect x="190" y="200" width="110" height="60" fill="rgb(142,142,200)" stroke="#fff"/>
<text x="245.0" y="234.0" text-anchor="middle" font-family="Arial" font-size="12" fill="#000">8122</text>
<rect x="300" y="80" width="110" height="60" fill="rgb(0,0,200)" stroke="#fff"/>
<text x="355.0" y="114.0" text-anchor="middle" font-family="Arial" font-size="12" fill="#000">8081</text>
<rect x="300" y="140" width="110" height="60" fill="rgb(8,8,200)" stroke="#fff"/>
<text x="355.0" y="174.0" text-anchor="middle" font-family="Arial" font-size="12" fill="#000">8083</text>
<rect x="300" y="200" width="110" height="60" fill="rgb(3,3,200)" stroke="#fff"/>
<text x="355.0" y="234.0" text-anchor="middle" font-family="Arial" font-size="12" fill="#000">8082</text>
<rect x="440" y="258.2" width="22" height="2.30" fill="rgb(0,0,200)" stroke="none"/>
<rect x="440" y="256.4" width="22" height="2.30" fill="rgb(5,5,200)" stroke="none"/>
<rect x="440" y="254.6" width="22" height="2.30" fill="rgb(10,10,200)" stroke="none"/>
<rect x="440" y="252.8" width="22" height="2.30" fill="rgb(15,15,200)" stroke="none"/>
<rect x="440" y="251.0" width="22" height="2.30" fill="rgb(20,20,200)" stroke="none"/>
<rect x="440" y="249.2" width="22" height="2.30" fill="rgb(25,25,200)" stroke="none"/>
<rect x="440" y="247.4" width="22" height="2.30" fill="rgb(30,30,200)" stroke="none"/>
<rect x="440" y="245.6" width="22" height="2.30" fill="rgb(35,35,200)" stroke="none"/>
<rect x="440" y="243.8" width="22" height="2.30" fill="rgb(40,40,200)" stroke="none"/>
<rect x="440" y="242.0" width="22" height="2.30" fill="rgb(45,45,200)" stroke="none"/>
<rect x="440" y="240.2" width="22" height="2.30" fill="rgb(51,51,200)" stroke="none"/>
<rect x="440" y="238.4" width="22" height="2.30" fill="rgb(56,56,200)" stroke="none"/>
<rect x="440" y="236.6" width="22" height="2.30" fill="rgb(61,61,200)" stroke="none"/>
<rect x="440" y="234.8" width="22" height="2.30" fill="rgb(66,66,200)" stroke="none"/>
<rect x="440" y="233.0" width="22" height="2.30" fill="rgb(71,71,200)" stroke="none"/>
<rect x="440" y="231.2" width="22" height="2.30" fill="rgb(76,76,200)" stroke="none"/>
<rect x="440" y="229.4" width="22" height="2.30" fill="rgb(81,81,200)" stroke="none"/>
<rect x="440" y="227.6" width="22" height="2.30" fill="rgb(86,86,200)" stroke="none"/>
<rect x="440" y="225.8" width="22" height="2.30" fill="rgb(91,91,200)" stroke="none"/>
<rect x="440" y="224.0" width="22" height="2.30" fill="rgb(96,96,200)" stroke="none"/>
<rect x="440" y="222.2" width="22" height="2.30" fill="rgb(101,101,200)" stroke="none"/>
<rect x="440" y="220.4" width="22" height="2.30" fill="rgb(107,107,200)" stroke="none"/>
<rect x="440" y="218.6" width="22" height="2.30" fill="rgb(112,112,200)" stroke="none"/>
<rect x="440" y="216.8" width="22" height="2.30" fill="rgb(117,117,200)" stroke="none"/>
<rect x="440" y="215.0" width="22" height="2.30" fill="rgb(122,122,200)" stroke="none"/>
<rect x="440" y="213.2" width="22" height="2.30" fill="rgb(127,127,200)" stroke="none"/>
<rect x="440" y="211.4" width="22" height="2.30" fill="rgb(132,132,200)" stroke="none"/>
<rect x="440" y="209.6" width="22" height="2.30" fill="rgb(137,137,200)" stroke="none"/>
<rect x="440" y="207.8" width="22" height="2.30" fill="rgb(142,142,200)" stroke="none"/>
<rect x="440" y="206.0" width="22" height="2.30" fill="rgb(147,147,200)" stroke="none"/>
<rect x="440" y="204.2" width="22" height="2.30" fill="rgb(153,153,200)" stroke="none"/>
<rect x="440" y="202.4" width="22" height="2.30" fill="rgb(158,158,200)" stroke="none"/>
<rect x="440" y="200.6" width="22" height="2.30" fill="rgb(163,163,200)" stroke="none"/>
<rect x="440" y="198.8" width="22" height="2.30" fill="rgb(168,168,200)" stroke="none"/>
<rect x="440" y="197.0" width="22" height="2.30" fill="rgb(173,173,200)" stroke="none"/>
<rect x="440" y="195.2" width="22" height="2.30" fill="rgb(178,178,200)" stroke="none"/>
<rect x="440" y="193.4" width="22" height="2.30" fill="rgb(183,183,200)" stroke="none"/>
<rect x="440" y="191.6" width="22" height="2.30" fill="rgb(188,188,200)" stroke="none"/>
<rect x="440" y="189.8" width="22" height="2.30" fill="rgb(193,193,200)" stroke="none"/>
<rect x="440" y="188.0" width="22" height="2.30" fill="rgb(198,198,200)" stroke="none"/>
<rect x="440" y="186.2" width="22" height="2.30" fill="rgb(203,203,200)" stroke="none"/>
<rect x="440" y="184.4" width="22" height="2.30" fill="rgb(209,209,200)" stroke="none"/>
<rect x="440" y="182.6" width="22" height="2.30" fill="rgb(214,214,200)" stroke="none"/>
<rect x="440" y="180.8" width="22" height="2.30" fill="rgb(219,219,200)" stroke="none"/>
<rect x="440" y="179.0" width="22" height="2.30" fill="rgb(224,224,200)" stroke="none"/>
<rect x="440" y="177.2" width="22" height="2.30" fill="rgb(229,229,200)" stroke="none"/>
<rect x="440" y="175.4" width="22" height="2.30" fill="rgb(234,234,200)" stroke="none"/>
<rect x="440" y="173.6" width="22" height="2.30" fill="rgb(239,239,200)" stroke="none"/>
<rect x="440" y="171.8" width="22" height="2.30" fill="rgb(244,244,200)" stroke="none"/>
<rect x="440" y="170.0" width="22" height="2.30" fill="rgb(249,249,200)" stroke="none"/>
<rect x="440" y="168.2" width="22" height="2.30" fill="rgb(230,255,80)" stroke="none"/>
<rect x="440" y="166.4" width="22" height="2.30" fill="rgb(230,249,78)" stroke="none"/>
<rect x="440" y="164.6" width="22" height="2.30" fill="rgb(230,244,76)" stroke="none"/>
<rect x="440" y="162.8" width="22" height="2.30" fill="rgb(230,239,75)" stroke="none"/>
<rect x="440" y="161.0" width="22" height="2.30" fill="rgb(230,234,73)" stroke="none"/>
<rect x="440" y="159.2" width="22" height="2.30" fill="rgb(230,229,71)" stroke="none"/>
<rect x="440" y="157.4" width="22" height="2.30" fill="rgb(230,224,70)" stroke="none"/>
<rect x="440" y="155.6" width="22" height="2.30" fill="rgb(230,219,68)" stroke="none"/>
<rect x="440" y="153.8" width="22" height="2.30" fill="rgb(230,214,67)" stroke="none"/>
<rect x="440" y="152.0" width="22" height="2.30" fill="rgb(230,209,65)" stroke="none"/>
<rect x="440" y="150.2" width="22" height="2.30" fill="rgb(230,203,63)" stroke="none"/>
<rect x="440" y="148.4" width="22" height="2.30" fill="rgb(230,198,62)" stroke="none"/>
<rect x="440" y="146.6" width="22" height="2.30" fill="rgb(230,193,60)" stroke="none"/>
<rect x="440" y="144.8" width="22" height="2.30" fill="rgb(230,188,59)" stroke="none"/>
<rect x="440" y="143.0" width="22" height="2.30" fill="rgb(230,183,57)" stroke="none"/>
<rect x="440" y="141.2" width="22" height="2.30" fill="rgb(230,178,56)" stroke="none"/>
<rect x="440" y="139.4" width="22" height="2.30" fill="rgb(230,173,54)" stroke="none"/>
<rect x="440" y="137.6" width="22" height="2.30" fill="rgb(230,168,52)" stroke="none"/>
<rect x="440" y="135.8" width="22" height="2.30" fill="rgb(230,163,51)" stroke="none"/>
<rect x="440" y="134.0" width="22" height="2.30" fill="rgb(230,158,49)" stroke="none"/>
<rect x="440" y="132.2" width="22" height="2.30" fill="rgb(230,153,48)" stroke="none"/>
<rect x="440" y="130.4" width="22" height="2.30" fill="rgb(230,147,46)" stroke="none"/>
<rect x="440" y="128.6" width="22" height="2.30" fill="rgb(230,142,44)" stroke="none"/>
<rect x="440" y="126.8" width="22" height="2.30" fill="rgb(230,137,43)" stroke="none"/>
<rect x="440" y="125.0" width="22" height="2.30" fill="rgb(230,132,41)" stroke="none"/>
<rect x="440" y="123.2" width="22" height="2.30" fill="rgb(230,127,40)" stroke="none"/>
<rect x="440" y="121.4" width="22" height="2.30" fill="rgb(230,122,38)" stroke="none"/>
<rect x="440" y="119.6" width="22" height="2.30" fill="rgb(230,117,36)" stroke="none"/>
<rect x="440" y="117.8" width="22" height="2.30" fill="rgb(230,112,35)" stroke="none"/>
<rect x="440" y="116.0" width="22" height="2.30" fill="rgb(230,107,33)" stroke="none"/>
<rect x="440" y="114.2" width="22" height="2.30" fill="rgb(230,102,32)" stroke="none"/>
<rect x="440" y="112.4" width="22" height="2.30" fill="rgb(230,96,30)" stroke="none"/>
<rect x="440" y="110.6" width="22" height="2.30" fill="rgb(230,91,28)" stroke="none"/>
<rect x="440" y="108.8" width="22" height="2.30" fill="rgb(230,86,27)" stroke="none"/>
<rect x="440" y="107.0" width="22" height="2.30" fill="rgb(230,81,25)" stroke="none"/>
<rect x="440" y="105.2" width="22" height="2.30" fill="rgb(230,76,24)" stroke="none"/>
<rect x="440" y="103.4" width="22" height="2.30" fill="rgb(230,71,22)" stroke="none"/>
<rect x="440" y="101.6" width="22" height="2.30" fill="rgb(230,66,20)" stroke="none"/>
<rect x="440" y="99.8" width="22" height="2.30" fill="rgb(230,61,19)" stroke="none"/>
<rect x="440" y="98.0" width="22" height="2.30" fill="rgb(230,56,17)" stroke="none"/>
<rect x="440" y="96.2" width="22" height="2.30" fill="rgb(230,51,16)" stroke="none"/>
<rect x="440" y="94.4" width="22" height="2.30" fill="rgb(230,45,14)" stroke="none"/>
<rect x="440" y="92.6" width="22" height="2.30" fill="rgb(230,40,12)" stroke="none"/>
<rect x="440" y="90.8" width="22" height="2.30" fill="rgb(230,35,11)" stroke="none"/>
<rect x="440" y="89.0" width="22" height="2.30" fill="rgb(230,30,9)" stroke="none"/>
<rect x="440" y="87.2" width="22" height="2.30" fill="rgb(230,25,8)" stroke="none"/>
<rect x="440" y="85.4" width="22" height="2.30" fill="rgb(230,20,6)" stroke="none"/>
<rect x="440" y="83.6" width="22" height="2.30" fill="rgb(230,15,4)" stroke="none"/>
<rect x="440" y="81.8" width="22" height="2.30" fill="rgb(230,10,3)" stroke="none"/>
<rect x="440" y="80.0" width="22" height="2.30" fill="rgb(230,5,1)" stroke="none"/>
<text x="470" y="84" font-family="Arial" font-size="11">8229</text>
<text x="470" y="260.0" font-family="Arial" font-size="11">8081</text>
</svg>
