<svg xmlns="http://www.w3.org/2000/svg" width="860" height="540" viewBox="0 0 860 540">
<rect width="100%" height="100%" fill="white"/>
<text x="430.0" y="28" text-anchor="middle" font-family="Arial" font-size="20">CLR_broad = CLR + PLR (denom=all) vs distance</text>
<text x="430.0" y="52" text-anchor="middle" font-family="Arial" font-size="13" fill="#555">CBR target=50%, group=G1, mean over pKeep</text>
<line x1="80" y1="70" x2="80" y2="480" stroke="#333"/>
<line x1="80" y1="480" x2="830" y2="480" stroke="#333"/>
<line x1="80.0" y1="480" x2="80.0" y2="485" stroke="#333"/>
<text x="80.0" y="502" text-anchor="middle" font-family="Arial" font-size="11">25</text>
<line x1="163.3" y1="480" x2="163.3" y2="485" stroke="#333"/>
<text x="163.3" y="502" text-anchor="middle" font-family="Arial" font-size="11">75</text>
<line x1="246.7" y1="480" x2="246.7" y2="485" stroke="#333"/>
<text x="246.7" y="502" text-anchor="middle" font-family="Arial" font-size="11">125</text>
<line x1="330.0" y1="480" x2="330.0" y2="485" stroke="#333"/>
<text x="330.0" y="502" text-anchor="middle" font-family="Arial" font-size="11">175</text>
<line x1="413.3" y1="480" x2="413.3" y2="485" stroke="#333"/>
<text x="413.3" y="502" text-anchor="middle" font-family="Arial" font-size="11">225</text>
<line x1="496.7" y1="480" x2="496.7" y2="485" stroke="#333"/>
<text x="496.7" y="502" text-anchor="middle" font-family="Arial" font-size="11">275</text>
<line x1="580.0" y1="480" x2="580.0" y2="485" stroke="#333"/>
<text x="580.0" y="502" text-anchor="middle" font-family="Arial" font-size="11">325</text>
<line x1="663.3" y1="480" x2="663.3" y2="485" stroke="#333"/>
<text x="663.3" y="502" text-anchor="middle" font-family="Arial" font-size="11">375</text>
<line x1="746.7" y1="480" x2="746.7" y2="485" stroke="#333"/>
<text x="746.7" y="502" text-anchor="middle" font-family="Arial" font-size="11">425</text>
<line x1="830.0" y1="480" x2="830.0" y2="485" stroke="#333"/>
<text x="830.0" y="502" text-anchor="middle" font-family="Arial" font-size="11">475</text>
<line x1="75" y1="480.0" x2="80" y2="480.0" stroke="#333"/>
<line x1="80" y1="480.0" x2="830" y2="480.0" stroke="#eee"/>
<text x="72" y="484.0" text-anchor="end" font-family="Arial" font-size="11">-0.003</text>
<line x1="75" y1="398.0" x2="80" y2="398.0" stroke="#333"/>
<line x1="80" y1="398.0" x2="830" y2="398.0" stroke="#eee"/>
<text x="72" y="402.0" text-anchor="end" font-family="Arial" font-size="11">0.006</text>
<line x1="75" y1="316.0" x2="80" y2="316.0" stroke="#333"/>
<line x1="80" y1="316.0" x2="830" y2="316.0" stroke="#eee"/>
<text x="72" y="320.0" text-anchor="end" font-family="Arial" font-size="11">0.015</text>
<line x1="75" y1="234.0" x2="80" y2="234.0" stroke="#333"/>
<line x1="80" y1="234.0" x2="830" y2="234.0" stroke="#eee"/>
<text x="72" y="238.0" text-anchor="end" font-family="Arial" font-size="11">0.025</text>
<line x1="75" y1="152.0" x2="80" y2="152.0" stroke="#333"/>
<line x1="80" y1="152.0" x2="830" y2="152.0" stroke="#eee"/>
<text x="72" y="156.0" text-anchor="end" font-family="Arial" font-size="11">0.034</text>
<line x1="75" y1="70.0" x2="80" y2="70.0" stroke="#333"/>
<line x1="80" y1="70.0" x2="830" y2="70.0" stroke="#eee"/>
<text x="72" y="74.0" text-anchor="end" font-family="Arial" font-size="11">0.043</text>
<text x="455.0" y="525" text-anchor="middle" font-family="Arial" font-size="14">Distance, m (bin centre)</text>
<text transform="translate(20,275.0) rotate(-90)" text-anchor="middle" font-family="Arial" font-size="14">CLR_broad = CLR + PLR (denom=all)</text>
<polyline points="80.0,451.0 163.3,448.6 246.7,444.4 330.0,436.1 413.3,407.7 496.7,383.3 580.0,339.3 663.3,272.5 746.7,194.3 830.0,98.3" fill="none" stroke="#1f77b4" stroke-width="2.5"/>
<circle cx="80.0" cy="451.0" r="3.5" fill="#1f77b4"/>
<circle cx="163.3" cy="448.6" r="3.5" fill="#1f77b4"/>
<circle cx="246.7" cy="444.4" r="3.5" fill="#1f77b4"/>
<circle cx="330.0" cy="436.1" r="3.5" fill="#1f77b4"/>
<circle cx="413.3" cy="407.7" r="3.5" fill="#1f77b4"/>
<circle cx="496.7" cy="383.3" r="3.5" fill="#1f77b4"/>
<circle cx="580.0" cy="339.3" r="3.5" fill="#1f77b4"/>
<circle cx="663.3" cy="272.5" r="3.5" fill="#1f77b4"/>
<circle cx="746.7" cy="194.3" r="3.5" fill="#1f77b4"/>
<circle cx="830.0" cy="98.3" r="3.5" fill="#1f77b4"/>
<line x1="710" y1="90" x2="738" y2="90" stroke="#1f77b4" stroke-width="3"/>
<text x="746" y="94" font-family="Arial" font-size="12">mu0</text>
<polyline points="80.0,451.7 163.3,451.7 246.7,450.9 330.0,447.1 413.3,435.4 496.7,411.0 580.0,369.5 663.3,302.2 746.7,224.3 830.0,131.0" fill="none" stroke="#d62728" stroke-width="2.5"/>
<circle cx="80.0" cy="451.7" r="3.5" fill="#d62728"/>
<circle cx="163.3" cy="451.7" r="3.5" fill="#d62728"/>
<circle cx="246.7" cy="450.9" r="3.5" fill="#d62728"/>
<circle cx="330.0" cy="447.1" r="3.5" fill="#d62728"/>
<circle cx="413.3" cy="435.4" r="3.5" fill="#d62728"/>
<circle cx="496.7" cy="411.0" r="3.5" fill="#d62728"/>
<circle cx="580.0" cy="369.5" r="3.5" fill="#d62728"/>
<circle cx="663.3" cy="302.2" r="3.5" fill="#d62728"/>
<circle cx="746.7" cy="224.3" r="3.5" fill="#d62728"/>
<circle cx="830.0" cy="131.0" r="3.5" fill="#d62728"/>
<line x1="710" y1="112" x2="738" y2="112" stroke="#d62728" stroke-width="3"/>
<text x="746" y="116" font-family="Arial" font-size="12">mu1</text>
<polyline points="80.0,451.7 163.3,451.7 246.7,451.2 330.0,448.9 413.3,441.6 496.7,425.1 580.0,397.0 663.3,349.9 746.7,290.9 830.0,221.4" fill="none" stroke="#2ca02c" stroke-width="2.5"/>
<circle cx="80.0" cy="451.7" r="3.5" fill="#2ca02c"/>
<circle cx="163.3" cy="451.7" r="3.5" fill="#2ca02c"/>
<circle cx="246.7" cy="451.2" r="3.5" fill="#2ca02c"/>
<circle cx="330.0" cy="448.9" r="3.5" fill="#2ca02c"/>
<circle cx="413.3" cy="441.6" r="3.5" fill="#2ca02c"/>
<circle cx="496.7" cy="425.1" r="3.5" fill="#2ca02c"/>
<circle cx="580.0" cy="397.0" r="3.5" fill="#2ca02c"/>
<circle cx="663.3" cy="349.9" r="3.5" fill="#2ca02c"/>
<circle cx="746.7" cy="290.9" r="3.5" fill="#2ca02c"/>
<circle cx="830.0" cy="221.4" r="3.5" fill="#2ca02c"/>
<line x1="710" y1="134" x2="738" y2="134" stroke="#2ca02c" stroke-width="3"/>
<text x="746" y="138" font-family="Arial" font-size="12">mu2</text>
</svg>
