<svg xmlns="http://www.w3.org/2000/svg" width="536" height="540" viewBox="0 0 536 540">
<rect width="100%" height="100%" fill="white"/>
<text x="268.0" y="28" text-anchor="middle" font-family="Arial" font-size="20">Loss decomposition (stacked)</text>
<text x="268.0" y="50" text-anchor="middle" font-family="Arial" font-size="13" fill="#555">CBR target=95%, band=250_500m, group=G2</text>
<line x1="70" y1="70" x2="70" y2="430" stroke="#333"/>
<line x1="70" y1="430" x2="376" y2="430" stroke="#333"/>
<line x1="65" y1="430.0" x2="70" y2="430.0" stroke="#333"/>
<text x="62" y="434.0" text-anchor="end" font-family="Arial" font-size="11">0.0</text>
<line x1="65" y1="358.0" x2="70" y2="358.0" stroke="#333"/>
<text x="62" y="362.0" text-anchor="end" font-family="Arial" font-size="11">0.2</text>
<line x1="65" y1="286.0" x2="70" y2="286.0" stroke="#333"/>
<text x="62" y="290.0" text-anchor="end" font-family="Arial" font-size="11">0.4</text>
<line x1="65" y1="214.0" x2="70" y2="214.0" stroke="#333"/>
<text x="62" y="218.0" text-anchor="end" font-family="Arial" font-size="11">0.6</text>
<line x1="65" y1="142.0" x2="70" y2="142.0" stroke="#333"/>
<text x="62" y="146.0" text-anchor="end" font-family="Arial" font-size="11">0.8</text>
<line x1="65" y1="70.0" x2="70" y2="70.0" stroke="#333"/>
<text x="62" y="74.0" text-anchor="end" font-family="Arial" font-size="11">1.0</text>
<text transform="translate(20,250.0) rotate(-90)" text-anchor="middle" font-family="Arial" font-size="14">fraction of TX attempts</text>
<rect x="72.0" y="117.2" width="28" height="312.76" fill="#2ca02c"/>
<rect x="72.0" y="110.8" width="28" height="6.41" fill="#ff7f0e"/>
<rect x="72.0" y="110.7" width="28" height="0.13" fill="#9467bd"/>
<rect x="72.0" y="72.7" width="28" height="37.96" fill="#d62728"/>
<rect x="72.0" y="70.0" width="28" height="2.74" fill="#1f77b4"/>
<text x="86.0" y="448" text-anchor="middle" font-family="Arial" font-size="10">tx17</text>
<text x="86.0" y="462" text-anchor="middle" font-family="Arial" font-size="10" fill="#555">P=0.00</text>
<rect x="106.0" y="117.6" width="28" height="312.36" fill="#2ca02c"/>
<rect x="106.0" y="111.0" width="28" height="6.61" fill="#ff7f0e"/>
<rect x="106.0" y="110.9" width="28" height="0.13" fill="#9467bd"/>
<rect x="106.0" y="73.2" width="28" height="37.69" fill="#d62728"/>
<rect x="106.0" y="70.0" width="28" height="3.20" fill="#1f77b4"/>
<text x="120.0" y="448" text-anchor="middle" font-family="Arial" font-size="10">tx17</text>
<text x="120.0" y="462" text-anchor="middle" font-family="Arial" font-size="10" fill="#555">P=0.40</text>
<rect x="140.0" y="117.7" width="28" height="312.32" fill="#2ca02c"/>
<rect x="140.0" y="111.1" width="28" height="6.54" fill="#ff7f0e"/>
<rect x="140.0" y="111.0" width="28" height="0.13" fill="#9467bd"/>
<rect x="140.0" y="73.2" width="28" height="37.82" fill="#d62728"/>
<rect x="140.0" y="70.0" width="28" height="3.19" fill="#1f77b4"/>
<text x="154.0" y="448" text-anchor="middle" font-family="Arial" font-size="10">tx17</text>
<text x="154.0" y="462" text-anchor="middle" font-family="Arial" font-size="10" fill="#555">P=0.80</text>
<rect x="174.0" y="95.9" width="28" height="334.08" fill="#2ca02c"/>
<rect x="174.0" y="89.5" width="28" height="6.45" fill="#ff7f0e"/>
<rect x="174.0" y="89.5" width="28" height="0.02" fill="#9467bd"/>
<rect x="174.0" y="72.9" width="28" height="16.55" fill="#d62728"/>
<rect x="174.0" y="70.0" width="28" height="2.91" fill="#1f77b4"/>
<text x="188.0" y="448" text-anchor="middle" font-family="Arial" font-size="10">tx20</text>
<text x="188.0" y="462" text-anchor="middle" font-family="Arial" font-size="10" fill="#555">P=0.00</text>
<rect x="208.0" y="96.4" width="28" height="333.56" fill="#2ca02c"/>
<rect x="208.0" y="89.9" width="28" height="6.52" fill="#ff7f0e"/>
<rect x="208.0" y="89.9" width="28" height="0.01" fill="#9467bd"/>
<rect x="208.0" y="73.4" width="28" height="16.51" fill="#d62728"/>
<rect x="208.0" y="70.0" width="28" height="3.40" fill="#1f77b4"/>
<text x="222.0" y="448" text-anchor="middle" font-family="Arial" font-size="10">tx20</text>
<text x="222.0" y="462" text-anchor="middle" font-family="Arial" font-size="10" fill="#555">P=0.40</text>
<rect x="242.0" y="96.7" width="28" height="333.31" fill="#2ca02c"/>
<rect x="242.0" y="90.0" width="28" height="6.65" fill="#ff7f0e"/>
<rect x="242.0" y="90.0" width="28" height="0.01" fill="#9467bd"/>
<rect x="242.0" y="73.4" width="28" height="16.59" fill="#d62728"/>
<rect x="242.0" y="70.0" width="28" height="3.44" fill="#1f77b4"/>
<text x="256.0" y="448" text-anchor="middle" font-family="Arial" font-size="10">tx20</text>
<text x="256.0" y="462" text-anchor="middle" font-family="Arial" font-size="10" fill="#555">P=0.80</text>
<rect x="276.0" y="85.5" width="28" height="344.47" fill="#2ca02c"/>
<rect x="276.0" y="79.0" width="28" height="6.49" fill="#ff7f0e"/>
<rect x="276.0" y="79.0" width="28" height="0.00" fill="#9467bd"/>
<rect x="276.0" y="73.0" width="28" height="6.05" fill="#d62728"/>
<rect x="276.0" y="70.0" width="28" height="2.99" fill="#1f77b4"/>
<text x="290.0" y="448" text-anchor="middle" font-family="Arial" font-size="10">tx23</text>
<text x="290.0" y="462" text-anchor="middle" font-family="Arial" font-size="10" fill="#555">P=0.00</text>
<rect x="310.0" y="86.2" width="28" height="343.83" fill="#2ca02c"/>
<rect x="310.0" y="79.5" width="28" height="6.64" fill="#ff7f0e"/>
<rect x="310.0" y="79.5" width="28" height="0.00" fill="#9467bd"/>
<rect x="310.0" y="73.5" width="28" height="6.03" fill="#d62728"/>
<rect x="310.0" y="70.0" width="28" height="3.51" fill="#1f77b4"/>
<text x="324.0" y="448" text-anchor="middle" font-family="Arial" font-size="10">tx23</text>
<text x="324.0" y="462" text-anchor="middle" font-family="Arial" font-size="10" fill="#555">P=0.40</text>
<rect x="344.0" y="86.0" width="28" height="343.97" fill="#2ca02c"/>
<rect x="344.0" y="79.6" width="28" height="6.41" fill="#ff7f0e"/>
<rect x="344.0" y="79.6" width="28" height="0.00" fill="#9467bd"/>
<rect x="344.0" y="73.6" width="28" height="6.04" fill="#d62728"/>
<rect x="344.0" y="70.0" width="28" height="3.58" fill="#1f77b4"/>
<text x="358.0" y="448" text-anchor="middle" font-family="Arial" font-size="10">tx23</text>
<text x="358.0" y="462" text-anchor="middle" font-family="Arial" font-size="10" fill="#555">P=0.80</text>
<rect x="396" y="80" width="16" height="16" fill="#2ca02c"/>
<text x="418" y="93" font-family="Arial" font-size="12">success</text>
<rect x="396" y="102" width="16" height="16" fill="#ff7f0e"/>
<text x="418" y="115" font-family="Arial" font-size="12">HDR</text>
<rect x="396" y="124" width="16" height="16" fill="#9467bd"/>
<text x="418" y="137" font-family="Arial" font-size="12">NSR</text>
<rect x="396" y="146" width="16" height="16" fill="#d62728"/>
<text x="418" y="159" font-family="Arial" font-size="12">PLR</text>
<rect x="396" y="168" width="16" height="16" fill="#1f77b4"/>
<text x="418" y="181" font-family="Arial" font-size="12">CLR</text>
</svg>
