<svg xmlns="http://www.w3.org/2000/svg" width="860" height="540" viewBox="0 0 860 540">
<rect width="100%" height="100%" fill="white"/>
<text x="430.0" y="28" text-anchor="middle" font-family="Arial" font-size="20">CLR (article, denom=SR+PL+CL) vs distance</text>
<text x="430.0" y="52" text-anchor="middle" font-family="Arial" font-size="13" fill="#555">CBR target=50%, group=G2, mean over pKeep</text>
<line x1="80" y1="70" x2="80" y2="480" stroke="#333"/>
<line x1="80" y1="480" x2="830" y2="480" stroke="#333"/>
<line x1="80.0" y1="480" x2="80.0" y2="485" stroke="#333"/>
<text x="80.0" y="502" text-anchor="middle" font-family="Arial" font-size="11">25</text>
<line x1="163.3" y1="480" x2="163.3" y2="485" stroke="#333"/>
<text x="163.3" y="502" text-anchor="middle" font-family="Arial" font-size="11">75</text>
<line x1="246.7" y1="480" x2="246.7" y2="485" stroke="#333"/>
<text x="246.7" y="502" text-anchor="middle" font-family="Arial" font-size="11">125</text>
<line x1="330.0" y1="480" x2="330.0" y2="485" stroke="#333"/>
<text x="330.0" y="502" text-anchor="middle" font-family="Arial" font-size="11">175</text>
<line x1="413.3" y1="480" x2="413.3" y2="485" stroke="#333"/>
<text x="413.3" y="502" text-anchor="middle" font-family="Arial" font-size="11">225</text>
<line x1="496.7" y1="480" x2="496.7" y2="485" stroke="#333"/>
<text x="496.7" y="502" text-anchor="middle" font-family="Arial" font-size="11">275</text>
<line x1="580.0" y1="480" x2="580.0" y2="485" stroke="#333"/>
<text x="580.0" y="502" text-anchor="middle" font-family="Arial" font-size="11">325</text>
<line x1="663.3" y1="480" x2="663.3" y2="485" stroke="#333"/>
<text x="663.3" y="502" text-anchor="middle" font-family="Arial" font-size="11">375</text>
<line x1="746.7" y1="480" x2="746.7" y2="485" stroke="#333"/>
<text x="746.7" y="502" text-anchor="middle" font-family="Arial" font-size="11">425</text>
<line x1="830.0" y1="480" x2="830.0" y2="485" stroke="#333"/>
<text x="830.0" y="502" text-anchor="middle" font-family="Arial" font-size="11">475</text>
<line x1="75" y1="480.0" x2="80" y2="480.0" stroke="#333"/>
<line x1="80" y1="480.0" x2="830" y2="480.0" stroke="#eee"/>
<text x="72" y="484.0" text-anchor="end" font-family="Arial" font-size="11">-0.000</text>
<line x1="75" y1="398.0" x2="80" y2="398.0" stroke="#333"/>
<line x1="80" y1="398.0" x2="830" y2="398.0" stroke="#eee"/>
<text x="72" y="402.0" text-anchor="end" font-family="Arial" font-size="11">0.001</text>
<line x1="75" y1="316.0" x2="80" y2="316.0" stroke="#333"/>
<line x1="80" y1="316.0" x2="830" y2="316.0" stroke="#eee"/>
<text x="72" y="320.0" text-anchor="end" font-family="Arial" font-size="11">0.001</text>
<line x1="75" y1="234.0" x2="80" y2="234.0" stroke="#333"/>
<line x1="80" y1="234.0" x2="830" y2="234.0" stroke="#eee"/>
<text x="72" y="238.0" text-anchor="end" font-family="Arial" font-size="11">0.002</text>
<line x1="75" y1="152.0" x2="80" y2="152.0" stroke="#333"/>
<line x1="80" y1="152.0" x2="830" y2="152.0" stroke="#eee"/>
<text x="72" y="156.0" text-anchor="end" font-family="Arial" font-size="11">0.003</text>
<line x1="75" y1="70.0" x2="80" y2="70.0" stroke="#333"/>
<line x1="80" y1="70.0" x2="830" y2="70.0" stroke="#eee"/>
<text x="72" y="74.0" text-anchor="end" font-family="Arial" font-size="11">0.004</text>
<text x="455.0" y="525" text-anchor="middle" font-family="Arial" font-size="14">Distance, m (bin centre)</text>
<text transform="translate(20,275.0) rotate(-90)" text-anchor="middle" font-family="Arial" font-size="14">CLR (article, denom=SR+PL+CL)</text>
<polyline points="80.0,451.7 163.3,425.6 246.7,383.8 330.0,338.5 413.3,139.3 496.7,132.7 580.0,144.9 663.3,151.4 746.7,182.9 830.0,175.9" fill="none" stroke="#1f77b4" stroke-width="2.5"/>
<circle cx="80.0" cy="451.7" r="3.5" fill="#1f77b4"/>
<circle cx="163.3" cy="425.6" r="3.5" fill="#1f77b4"/>
<circle cx="246.7" cy="383.8" r="3.5" fill="#1f77b4"/>
<circle cx="330.0" cy="338.5" r="3.5" fill="#1f77b4"/>
<circle cx="413.3" cy="139.3" r="3.5" fill="#1f77b4"/>
<circle cx="496.7" cy="132.7" r="3.5" fill="#1f77b4"/>
<circle cx="580.0" cy="144.9" r="3.5" fill="#1f77b4"/>
<circle cx="663.3" cy="151.4" r="3.5" fill="#1f77b4"/>
<circle cx="746.7" cy="182.9" r="3.5" fill="#1f77b4"/>
<circle cx="830.0" cy="175.9" r="3.5" fill="#1f77b4"/>
<line x1="710" y1="90" x2="738" y2="90" stroke="#1f77b4" stroke-width="3"/>
<text x="746" y="94" font-family="Arial" font-size="12">tx17</text>
<polyline points="80.0,451.1 163.3,417.0 246.7,379.1 330.0,333.3 413.3,140.6 496.7,132.0 580.0,150.4 663.3,135.3 746.7,143.0 830.0,167.9" fill="none" stroke="#d62728" stroke-width="2.5"/>
<circle cx="80.0" cy="451.1" r="3.5" fill="#d62728"/>
<circle cx="163.3" cy="417.0" r="3.5" fill="#d62728"/>
<circle cx="246.7" cy="379.1" r="3.5" fill="#d62728"/>
<circle cx="330.0" cy="333.3" r="3.5" fill="#d62728"/>
<circle cx="413.3" cy="140.6" r="3.5" fill="#d62728"/>
<circle cx="496.7" cy="132.0" r="3.5" fill="#d62728"/>
<circle cx="580.0" cy="150.4" r="3.5" fill="#d62728"/>
<circle cx="663.3" cy="135.3" r="3.5" fill="#d62728"/>
<circle cx="746.7" cy="143.0" r="3.5" fill="#d62728"/>
<circle cx="830.0" cy="167.9" r="3.5" fill="#d62728"/>
<line x1="710" y1="112" x2="738" y2="112" stroke="#d62728" stroke-width="3"/>
<text x="746" y="116" font-family="Arial" font-size="12">tx20</text>
<polyline points="80.0,451.2 163.3,425.7 246.7,387.5 330.0,343.0 413.3,154.7 496.7,158.9 580.0,137.5 663.3,137.3 746.7,127.7 830.0,98.3" fill="none" stroke="#2ca02c" stroke-width="2.5"/>
<circle cx="80.0" cy="451.2" r="3.5" fill="#2ca02c"/>
<circle cx="163.3" cy="425.7" r="3.5" fill="#2ca02c"/>
<circle cx="246.7" cy="387.5" r="3.5" fill="#2ca02c"/>
<circle cx="330.0" cy="343.0" r="3.5" fill="#2ca02c"/>
<circle cx="413.3" cy="154.7" r="3.5" fill="#2ca02c"/>
<circle cx="496.7" cy="158.9" r="3.5" fill="#2ca02c"/>
<circle cx="580.0" cy="137.5" r="3.5" fill="#2ca02c"/>
<circle cx="663.3" cy="137.3" r="3.5" fill="#2ca02c"/>
<circle cx="746.7" cy="127.7" r="3.5" fill="#2ca02c"/>
<circle cx="830.0" cy="98.3" r="3.5" fill="#2ca02c"/>
<line x1="710" y1="134" x2="738" y2="134" stroke="#2ca02c" stroke-width="3"/>
<text x="746" y="138" font-family="Arial" font-size="12">tx23</text>
</svg>
